<svg id="Layer_1" data-name="Layer 1" xmlns="http://www.w3.org/2000/svg" viewBox="0 0 448.27 387.91"><defs><style>.cls-1{fill:#fff;}</style></defs><path class="cls-1" d="M448.07,123.58a39.22,39.22,0,0,0-1.73-10.48,44.5,44.5,0,0,0-4.41-11.21c-1.63-2.69-3-5.52-4.59-8.25a11.8,11.8,0,0,0-1.52-2c-1.23-1.34-2.86-2.45-3.67-4-1-2-2.92-3.11-4.32-4.67-2.16-2.42-5.05-4.18-7.65-6.2a13.62,13.62,0,0,0-1.44-.85c-3.13-2-6.17-4.07-9.41-5.81a85.3,85.3,0,0,0-8.72-3.78c-3.31-1.32-6.63-2.61-10-3.73a92.85,92.85,0,0,0-9.1-2.51C376.39,59,371.26,57.89,366.1,57q-6.63-1.1-13.33-1.69c-4.25-.37-8.52-.47-12.79-.59-3.26-.09-6.53,0-9.67,0-.32-2.14-.57-4-.88-5.91a33,33,0,0,0-4-11.33,57.56,57.56,0,0,0-13.7-16.13c-2.66-2.14-5.59-4-8.45-5.85a26.81,26.81,0,0,0-3.45-1.79c-1.42-.67-2.86-1.28-4.3-1.91-2.11-.92-4.18-2-6.35-2.74-2.69-1-5.45-1.78-8.21-2.51-3.72-1-7.46-1.9-11.22-2.7-2.43-.52-4.91-.77-7.37-1.17-1.94-.33-3.87-.76-5.82-1C254,1.27,251.4,1,248.82.72S243.7.37,241.13.29C236.84.15,232.55,0,228.25,0c-2.44,0-4.87.18-7.31.25-1.54,0-3.09,0-4.64,0s-3.39.17-5.09.27c-2.28.13-4.56.17-6.83.43-2.44.29-4.86.83-7.29,1.19-3.25.49-6.5.9-9.74,1.36-1.19.17-2.37.42-3.55.62-2.44.41-4.9.72-7.31,1.26-2.23.49-4.38,1.28-6.6,1.83-2,.49-4.07.66-6,1.27a81.26,81.26,0,0,0-8,3q-7.31,3.17-14.51,6.54c-2.91,1.36-5.74,2.89-8.6,4.36s-5.62,2.82-8.36,4.36c-1.62.91-3,2.12-4.64,3.09s-3.46,1.82-5.11,2.85-3.37,2.35-5,3.52c-1.39,1-2.86,1.83-4.16,2.9-1.93,1.57-3.73,3.3-5.63,4.91-.65.56-1.56.83-2.15,1.42-2.73,2.71-5.38,5.51-8.08,8.25a40.23,40.23,0,0,0-3.94,3.89c-2.72,3.65-6.11,6.93-6.9,11.76-.28,1.68-1,3.28-1.31,5-.49,2.72.49,5.34.84,8a3.37,3.37,0,0,0,.47,1.19,26.32,26.32,0,0,0,1.43,2.27,16.37,16.37,0,0,0,2.58,3.32A25.3,25.3,0,0,0,92,93.87a34.58,34.58,0,0,0,3.68.68c2.89.47,5.77,1,8.68,1.37,2,.22,3.93.1,5.91.13,1.75,0,3.51.13,5.26,0,2-.1,3.9-.45,5.86-.59,4.36-.32,8.73-.47,13.08-.88,2.74-.25,5.44-.88,8.17-1.27s5.73-.64,8.56-1.15c4.24-.78,8.45-1.71,12.67-2.63q8.12-1.77,16.22-3.65c3-.7,6-1.58,9-2.29s5.89-1.24,8.84-1.84a13.15,13.15,0,0,1,1.61-.11,25.56,25.56,0,0,1-.94,2.74c-1.19,2.43-2.49,4.81-3.69,7.24-1.11,2.26-2.11,4.58-3.25,6.82-1.32,2.61-2.85,5.12-4.09,7.77-1.44,3.1-2.74,6.27-3.94,9.47-1.78,4.74-3.42,9.52-5.08,14.3-.59,1.69-1.06,3.42-1.58,5.14,1.42-2,2.54-4.1,3.81-6.12,4.33-6.87,8.77-13.68,12.59-20.86,1.54-2.91,3-5.89,4.32-8.89,1.12-2.46,2.11-5,3.09-7.49,1.34-3.46,2.66-6.94,3.88-10.45a2.14,2.14,0,0,1,1.72-1.5c2-.53,4-1.14,6-1.64,3.59-.89,7.17-1.78,10.77-2.59s7.24-1.46,10.83-2.3c4.06-1,8.08-2.06,12.12-3,3-.72,6-1.38,9-2,3.69-.81,7.38-1.62,11.08-2.36,3.36-.67,6.74-1.27,10.12-1.88q8.33-1.52,16.68-3c2.72-.48,5.45-.95,8.19-1.3,3.37-.44,6.76-.79,10.15-1.13,4.48-.44,9-.84,13.44-1.24.56-.05,1.12,0,1.75,0-1.15,16.22-11.13,26.27-23.28,34.87a66,66,0,0,0,15.21-11.42c6.39-6.49,10.7-14.06,11.49-23.44h7.55c3.48,0,7-.13,10.45,0,3.79.16,7.59.45,11.35.94,4.25.56,8.49,1.25,12.67,2.16,4.88,1.06,9.72,2.32,14.53,3.67a69.87,69.87,0,0,1,8.4,3c4,1.7,7.91,3.54,11.79,5.49,2.18,1.1,4.2,2.54,6.31,3.81a21.34,21.34,0,0,1,1.87,1c.9.68,1.72,1.49,2.61,2.19,1.38,1.1,2.91,2,4.18,3.24,2.14,2,4.13,4.21,6.17,6.33a4.81,4.81,0,0,1,.4.6c.91,1.22,1.83,2.43,2.73,3.66A45,45,0,0,1,434,97.84c1,1.84,1.8,3.82,2.69,5.74,2.64,5.74,4.63,11.66,4.95,18a56.32,56.32,0,0,1,.18,7.68c-.33,3.75-1,7.48-1.6,11.22a11.9,11.9,0,0,1-.68,2.87c-1.25,2.79-2.59,5.54-4,8.27a24,24,0,0,1-1.61,2.45c-.89,1.34-1.38,2.88-2.66,4.06-2.1,1.94-3.88,4.24-6,6.19a51.34,51.34,0,0,1-6.16,4.95,48.87,48.87,0,0,1-6.62,3.73c-2,1-4.18,1.64-6.29,2.42s-4.48,1.66-7,1.47a37.89,37.89,0,0,0-6,.35,5.72,5.72,0,0,1-5.41-3.18,9.79,9.79,0,0,1-.25-7.35c2.62-.29,5-.66,7.44-.79a11.55,11.55,0,0,0,5.85-1.75c2.94-1.88,5.48-3.93,6.34-7.54.35-1.48-.41-5.11-1.69-5.94a32.86,32.86,0,0,0-5.83-3.27,5.2,5.2,0,0,0-3.87.27c-1.83,1-3.92,1.42-5.5,3.06-.9.93-2.25,1.48-3.08,2.65s-1.84,2.2-3,3.52c-.13-.58-.23-.76-.18-.84a9.19,9.19,0,0,0,1.44-6c-.05-.41.17-.85.16-1.27a33.1,33.1,0,0,0-.21-5.37,7.68,7.68,0,0,0-2.46-4.28,10.16,10.16,0,0,0-3.69-2.54c-3.27-.87-6.58-1.88-10.09-.7-2.2.73-5.06,3.75-5.27,6.21,3.06-2.64,6.67-3.37,10.55-3.66,1.82-.13,2.59.82,3.3,1.93a7.27,7.27,0,0,1,1.4,4.51c-.13,1.6.43,3.32.08,4.84a52.46,52.46,0,0,1-2.7,8.17,39.34,39.34,0,0,1-3.33,6.24,31.25,31.25,0,0,1-4,5c-.68.68-.81,2.16-2.28,1.95-.07,0-.16.24-.26.34l-3.53,3.7c.77-2.8,1.38-5.2,2.1-7.56,1.1-3.58,2.34-7.12,3.4-10.72a3,3,0,0,0-.19-2.43c-1.67-1.9-3.58-1.42-4.52.95a1.69,1.69,0,0,0-.2.54c0,1-.62,1.38-1.38,1.65-2.32.85-4.64,1.66-7.08,2.54a14.72,14.72,0,0,0-2.17-7.3,2,2,0,0,0-.63-.73c-1.73-.92-3.46-1.86-5.25-2.68a9.48,9.48,0,0,0-9.61.74c-2.44,1.58-4.45,3.56-4,6.78a17.72,17.72,0,0,0,1.39,3.73c0-.05,0,.06-.09.09-2.68,1.18-5.49,1.06-8.29.76a1.79,1.79,0,0,1-1.26-.81,8.9,8.9,0,0,0-4.87-4.41,1.88,1.88,0,0,0-2.18.38c-1.32,1.33-2.5,2.79-3.76,4.18-1.12,1.23-2.27,2.43-3.4,3.64l-.37-.32c.62-1.22,1.26-2.42,1.85-3.66a46.31,46.31,0,0,0,2.1-4.73,2.33,2.33,0,0,0-.57-1.94,25.58,25.58,0,0,0-3-2.32c-2.75,1.67-5.37,3.44-9,3.26a6.4,6.4,0,0,0,5.3,2.64c-2.23,3.9-4.51,7.67-6.58,11.56s-4.13,8-4.94,12.91l5.9,2.34c5.32-8.73,10.55-17.39,18.24-24.37,1.57,2.34,4.09,2.91,6.21,4.12,2.33,1.34,4.62,1,7.17-.34a38.66,38.66,0,0,0-1.7,3.74,48.52,48.52,0,0,0-1.7,6.25,14.17,14.17,0,0,0,0,4.55,2.63,2.63,0,0,0,1.71,2.22c1.37.48,2.7,1.08,4,1.62.6.24,1.21.45,2,.75-2.23.21-4.18.48-6.15.56-3.46.14-6.93.1-10.38.25-3.7.16-7.39.46-11.08.69-2.18.14-4.37.24-6.55.41-1.66.12-3.31.38-5,.47-2.71.14-5.44.15-8.15.31-1.78.11-3.54.5-5.32.57-2.85.09-5.71,0-8.51,0,.6-.77,1.42-1.74,2.12-2.78,1.27-1.9,2.51-3.83,3.68-5.79.85-1.42,1.54-2.93,2.32-4.39,1.34-2.49,2.77-4.94,4-7.48.94-1.91,1.19-4.12,2.51-5.9.2-.28-.05-.9-.09-1.41l7.24-3.24a1.24,1.24,0,0,0-.93-.28c-2.43.16-4.86.43-7.29.45-1.44,0-2.82-.15-3.66,1.24-.89-.52-1.65-1.34-2.45-1.39-2.37-.12-4.74.06-7.12.13a33.79,33.79,0,0,1-4,.11c-2.19-.21-4.35-.65-6.54-.9-.43,0-.9.36-1.66.68,6,4.4,12.59,4.28,19.07,4.49a13.71,13.71,0,0,1-4.13,6.68c-2,1.61-4.23,2.94-6.36,4.38-.77.52-1.57,1-2.35,1.5-1.48.95-2.93,2-4.46,2.84-1,.56-2.13.8-3.13,1.33a39.19,39.19,0,0,1-17.74,4.77c-2.61.06-3.42-.52-3.53-3.11a19.56,19.56,0,0,1,.44-3.62,14.39,14.39,0,0,1,.57-3c.95-2.35,2.05-4.63,3.08-7a38.24,38.24,0,0,1,2-4.62,91.73,91.73,0,0,1,5.22-7.58c1.8-2.35,3.75-4.58,5.76-6.75,1.75-1.87,3.62-3.63,5.55-5.33a32.51,32.51,0,0,1,4.7-3.57,53.27,53.27,0,0,1,6.85-3.51c3.12-1.3,6.34-2.41,9.75-.79a5.33,5.33,0,0,1,.1,1.18,10.91,10.91,0,0,0-.37,2.14,3.44,3.44,0,0,0,.81,2c.18.2,1.23-.19,1.7-.56a3.62,3.62,0,0,0,.63-4.15,30.61,30.61,0,0,0-2.64-3.86,4.67,4.67,0,0,0-2.19-1.77,21.12,21.12,0,0,0-6.25-.68,24.41,24.41,0,0,0-12.19,4.65c-3.35,2.41-6.46,5.17-9.62,7.83-.69.58-1.06,1.85-1.77,2-1.21.3-1.48,1.28-2.15,1.95s-1.12,1.32-1.67,2c-1.44,1.74-3,3.43-4.3,5.24-1.16,1.58-2.15,3.3-3.16,5s-1.83,3.11-2.66,4.72a57.39,57.39,0,0,0-5.14,15.25c-.45,2.23.73,5.4,2.57,6.41a24.61,24.61,0,0,0,11.21,2.71c2.58.08,5.19-.66,7.77-1.12a16.25,16.25,0,0,0,3.92-1.08c1.86-.86,3.61-2,5.4-3,1.29-.75,2.57-1.53,3.86-2.29l1-.59,6.23-3.72c.59-.35,1.18-.73,2.07-1.27-.78,1.63-1.29,2.92-2,4.11-.56,1-1.37,1.77-2,2.7-1.11,1.64-2.14,3.35-3.28,5-.57.81-1.59,1.41-1.89,2.27a1.91,1.91,0,0,1-1.8,1.45c-1,.12-2.1.15-3.15.23-2.33.19-4.65.44-7,.55-2.08.1-4.16,0-6.23.08-1.53.07-3,.43-4.55.49s-3.23-.22-4.83-.17c-4,.14-7.93.43-11.9.55-2.75.07-5.44.83-8.25.41a30,30,0,0,0-5.84.07c-2.32.1-4.64.28-7,.41-1.74.1-3.48.24-5.23.24-3.37,0-6.74-.12-10.11-.12-2.38,0-4.76.13-7.14.2-4,.12-7.95-.53-11.87.26-2.27.46-4.4-.49-6.69-.23a57,57,0,0,1-8.15-.15c-.93,0-1.86-.09-2.79-.09-2.09,0-4.19.08-6.28.07-2.26,0-4.52-.07-6.78-.13-1.89,0-3.78-.11-5.91-.17a22.78,22.78,0,0,0,1.16-2.08c.83-2.18,1.6-4.37,2.41-6.56.48-1.3,1-2.6,1.48-3.89.71-1.8,1.58-3.55,2.16-5.39a12.35,12.35,0,0,1,3.8-6.16c1.51-1.24,2.88-2.67,4.32-4a34.35,34.35,0,0,1,8.38-5.72,18,18,0,0,1,0,2.36A38,38,0,0,1,159,169.12a1.72,1.72,0,0,1-1,.82c-1.54.38-3.11.63-4.66,1-3.5.79-6.5,2.33-7.81,5.94a8.73,8.73,0,0,0-.65,3.74c.2,1.88,3.37,4.58,5.28,4.83a4.19,4.19,0,0,0,1.93,0,14.71,14.71,0,0,0,6.71-5.66,37.19,37.19,0,0,0,2.72-5.2c1-2.13,2-2.66,4.3-2.24a31.55,31.55,0,0,0-.71,4.26,6.9,6.9,0,0,0,.6,3.77,7.14,7.14,0,0,0,4.34,3.44c2,.45,4.13,1.51,6.08,1.28,2.65-.31,5.53-.44,7.88-2.14a26.23,26.23,0,0,1,2.84-1.87,20.63,20.63,0,0,0,6.26-5.61c.33-.4.64-.82.95-1.23a41.08,41.08,0,0,1-2.41,5.85c-.8,1.61-.47,2.5,1.26,3,.85.23,1.7.44,2.54.71a1.76,1.76,0,0,0,2.37-1,20.78,20.78,0,0,1,1.16-2.25q1.83-2.72,3.77-5.35,2-2.79,4.14-5.5c1.25-1.6,2.53-3.19,3.89-4.71s3.08-3.26,4.62-4.88a10.53,10.53,0,0,1-.61,3.08c-1.22,3.82-2.47,7.62-2.45,11.72,0,2.93,1.05,4.54,3.81,5.26a10.42,10.42,0,0,0,1.41.36c1.81.2,3.62,1.27,5.43.34A15,15,0,0,0,228,176.5c-2,.79-4.26,1.8-6.59,2.53-1.52.48-2.15-.16-2.62-1.74-1-3.28,0-6.45.56-9.62.5-2.92,1.39-5.78,2.09-8.67a5,5,0,0,0,.27-2c-.38-2-2.21-2.21-3.66-2.9-1.1-.52-1.84.31-2.41.83-2.62,2.37-5.13,4.86-7.63,7.37-1.38,1.39-2.65,2.89-4,4.34a38.91,38.91,0,0,1,1.48-4.54c.88-2.4.18-4.45-1.92-5.39-.31-.14-1.07,0-1.18.24-1.14,2.27-2.17,4.6-3.26,6.89-.63,1.32-1.07,2.86-2,3.87a47.87,47.87,0,0,1-6.53,5.8c-2.53,1.82-5.33,3.25-8,4.81a21,21,0,0,1-3.92,2,45.12,45.12,0,0,1-5.07,1c-1.17.24-1.73-.16-1.72-1.33a31.64,31.64,0,0,1,.14-4.57,37,37,0,0,1,1.16-4.39c.43.12.66.16.89.24,4.63,1.78,8.85.32,12.74-2.05a17.12,17.12,0,0,0,4.32-4.56,5.36,5.36,0,0,0,1-3.32c-.18-2.44-1-4.62-4.13-5.32-1.89-.43-3.77-1.27-5.66-1.27a11.34,11.34,0,0,0-7.2,3.08,36.45,36.45,0,0,0-5.34,6c-1.36,1.82-2.06,4.23-4.85,4.45a4.13,4.13,0,0,1-.59-.19,11.47,11.47,0,0,1,.37-1.89,19.65,19.65,0,0,0,1.26-8.21c-.17-2.31-1.7-3.76-3.25-5.14a2.65,2.65,0,0,0-2.25-.61,28.14,28.14,0,0,0-5.35,3.08c-1.9,1.43-3.57,3.17-5.4,4.83.19-.7.37-1.36.54-2,1-3.63,1-3.63-2.66-4.42l-.29-.07a2.17,2.17,0,0,0-2.78,1.33c-.61,1.26-1.25,2.51-2,3.71-.53.89-.6,1.58.36,2-.83,1.8-.67,3.79-1.79,5.46-.83,1.23-.93,2.92-1.46,4.36-.76,2.11-1.61,4.18-2.43,6.26-1.47,3.71-2.93,7.43-4.45,11.12a1.92,1.92,0,0,1-2,1.33c-1.4-.07-2.82.06-4.23,0-2.18-.05-4.36-.19-6.53-.25s-4.3-.11-6.44-.12-4.13,0-6.19.06H103.6c1.38-2.56,2.66-4.89,3.88-7.25,2.25-4.33,4.45-8.68,6.68-13,.69-1.34,1.37-2.7,2.18-4a1.77,1.77,0,0,1,1.32-.55c2.36,0,4.73.16,7.08,0a1.89,1.89,0,0,1,2.27,1.44c1,2.6,1.67,5.28.85,7.92a12.18,12.18,0,0,1-3.9,6.19,16.87,16.87,0,0,1-5.7,3.16c-1.59.5-2.51,0-2.63-1.68a12.87,12.87,0,0,1,2.13-8.42c.42-.61.89-1.18,1.34-1.77l-.38-.37c-2.19,2-4.46,3.86-6.53,6a6.77,6.77,0,0,0-1.38,3,4,4,0,0,0,2.31,4.59c3.67,1.19,7.27,3.23,11.32,1.52a13.48,13.48,0,0,0,3.69-1.92,40.09,40.09,0,0,0,4.45-4.84A7,7,0,0,0,134,176.3c1.13-4.63-.33-8.87-2.4-13.23,3-.7,4.45-3,5.88-5.33,1.33-2.16.49-4.12-1.94-4.8a7.71,7.71,0,0,0-6.8,1.17c-2.1,1.47-3.66,3.29-3.24,6.14.09.57.08,1.17.13,2.07-2.35,0-4.52,0-6.69,0-.93,0-1.33-.38-1-1.22.39-1,1-1.93,1.42-2.91,1.89-4,3.8-8.07,5.65-12.13.87-1.9,1.59-3.88,2.46-5.78s1.85-3.45,2.63-5.23c1.09-2.47,2.06-5,3-7.51,1.24-3.18.95-3.74-2.26-4.94a1,1,0,0,0-1.52.58,31.47,31.47,0,0,1-2.73,4.46c-2.89,3.52-5.92,6.93-8.92,10.37-2.09,2.4-4.16,4.84-6.36,7.15q-3.9,4.13-8,8c-1.65,1.56-3.51,2.89-5.24,4.37a2.67,2.67,0,0,1-2.54.6c-3.85-.81-7.7-1.73-11.6-2.28-6.33-.88-12.7-1.55-19.09-.57a59.25,59.25,0,0,0-7.66,1.34,33.2,33.2,0,0,0-8.38,3.79,10.62,10.62,0,0,0-5,6,4.92,4.92,0,0,0,.34,2.31c.09.36.44.64.64,1,2.06,3.47,4.81,6.07,8.88,7a34.14,34.14,0,0,0,13-.05c-2.72-.26-5.85-.43-8.93-.9a19,19,0,0,1-8.44-3.38c-1.12-.82-1.81-2.4-1.25-3.25,1.05-1.59,2-3.4,3.5-4.51,2.57-1.94,5.29-3.77,8.61-4.41s6.51-1.85,9.82-2.15a66.46,66.46,0,0,1,11.63.12c4.23.36,8.43,1.18,12.65,1.79l.1.43c-1.14.95-2.25,1.93-3.41,2.86-4,3.19-7.9,6.55-12.08,9.48-4.66,3.27-9.55,6.21-14.42,9.15-2.25,1.37-4.7,2.4-7.06,3.59-3.36,1.68-6.66,3.51-10.1,5-2.88,1.25-5.93,2.09-8.91,3.12a36.59,36.59,0,0,1-3.6,1.26,28,28,0,0,1-4.37.62c-2.73.19-5.47.43-8.19.36a20.25,20.25,0,0,1-7.74-1.76c-3.5-1.55-6.52-3.57-8.2-7.06a28.26,28.26,0,0,1-2.89-15.43,19.79,19.79,0,0,1,.57-4.53c1.16-3.22,2.31-6.54,4.6-9.16a55.82,55.82,0,0,1,6.22-6,16.17,16.17,0,0,1,3.93-2.07c3.11-1.43,6.23-2.87,9.4-4.17a13.51,13.51,0,0,1,3.69-.8,34,34,0,0,1,3.8,0,10.66,10.66,0,0,0-1.12-.4A32.16,32.16,0,0,0,23,144.12a23.54,23.54,0,0,0-12.88,5.44,32.39,32.39,0,0,0-5.37,6.12A25.13,25.13,0,0,0,.56,165.77,32.47,32.47,0,0,0,.7,178.46a23.48,23.48,0,0,0,4.06,9.91c2.82,3.6,5.83,7,10,9.29a25.75,25.75,0,0,0,11.18,3,28.68,28.68,0,0,0,8.81-.81c2.76-.73,5.59-1.28,8.27-2.23,3.09-1.08,6.08-2.47,9.07-3.82,1.57-.72,3-1.67,4.58-2.48.81-.43,1.71-.71,2.48-1.2q3.89-2.48,7.7-5.06c2.28-1.55,4.53-3.14,6.76-4.75,3.06-2.21,6.1-4.46,9.14-6.7,2.48-1.81,5-3.56,7.39-5.48,2.53-2,4.89-4.27,7.38-6.35a2.39,2.39,0,0,1,1.71-.5c3.66.66,7.31,1.42,11,2.16-.55,1.19-1.12,2.32-1.6,3.48-1.21,2.9-2.41,5.81-3.54,8.74-1.55,4-3.07,8-4.53,12-.32.88-.73,1.26-1.66,1.21-1.09-.07-2.19,0-3.29,0-3.07.07-6.15.15-9.22.25a72.74,72.74,0,0,0-8.37.41,28.11,28.11,0,0,0-5.78,1.95,5.24,5.24,0,0,0-2.2,1.25c-1,1.26-.68,2.61.72,3.73,1.67,1.35,3.29,2.8,5.57,3.06.15,0,.3.21.42.34,1.53,1.72,3.85,1.9,5.79,2.61a23.65,23.65,0,0,0,4.65,1.36c1.64.25,3.2,1,4.83,1.4,1.45.33,1.7.57,1.18,2-.93,2.5-1.88,5-2.83,7.49,1.41-2.45,2.68-5,3.88-7.49.36-.78.79-1.19,1.67-.94s1.93.55,2.9.79c2,.48,4,1,6,1.41s3.82.86,5.74,1.21c1.59.29,3.2.44,4.79.71,1.78.31,3.54.73,5.32,1,1.19.21,2.39.31,3.66.48-1,2.64-1.92,5.2-2.92,7.73-.62,1.55-.29,3,1,3.22a36.71,36.71,0,0,0,4.29.31c.66-2.09,1.29-4,1.88-6,.26-.86.41-1.76.7-2.61.17-.48.46-1.21.81-1.29a10.17,10.17,0,0,1,2.17.17c4.27.12,8.46,1.15,12.75,1.11a2.51,2.51,0,0,1,.27,0c2,.33,4.05.73,6.09,1,1.38.15,2.8,0,4.19.1,2.26.2,4.51.53,6.76.77.61.07,1.23,0,1.84.06,2.35.18,4.69.41,7,.57.62,0,1.25-.18,1.88-.15,2.91.12,5.82.31,8.73.45,2,.1,4.09.31,6.12.23,4.82-.2,9.64-.54,14.45-.84,2.57-.17,5.16-.25,7.7-.61,5.16-.73,10.32-1.48,15.42-2.47,4.25-.83,8.57-1.31,12.65-3,2.09-.85,4.36-1.2,6.53-1.86a64.84,64.84,0,0,0,13.05-5.51c1.51-.85,2.81-2.06,4.26-3a25.28,25.28,0,0,0,3.28-1.94,73.63,73.63,0,0,0,6.12-6.12,6.6,6.6,0,0,1,5.62-2.6,34.94,34.94,0,0,0,3.69,0c.61,0,1.22-.38,1.84-.39,2.26-.06,4.52,0,6.77-.06,3.25-.15,6.48-.44,9.72-.65s6.38-.35,9.57-.59c2.73-.19,5.45-.47,8.17-.72,2.22-.21,4.43-.48,6.64-.62,3.34-.2,6.69-.23,10-.5,4.54-.37,9.07-.93,13.61-1.33s9.32-.74,14-1.09,9.54-.68,14.3-1c5.7-.4,11.39-.86,17.09-1.14,2.4-.11,4.82.26,7.23.26a18.82,18.82,0,0,0,7.69-1.75c.84-.37,1.66-.8,2.53-1.09a40.08,40.08,0,0,0,4.58-1.46c2.69-1.3,5.29-2.8,7.87-4.3,1.29-.75,2.46-1.7,3.71-2.51a33.42,33.42,0,0,0,3.09-1.93,33.93,33.93,0,0,0,3.33-3.24c1.1-1.17,2.06-2.47,3.19-3.62s2.77-2.26,3.21-4.14c0-.07.15-.11.22-.18a12.05,12.05,0,0,0,1.47-1.66,47.93,47.93,0,0,0,2.65-4.75c.86-1.89,1.56-3.86,2.23-5.83a36.26,36.26,0,0,0,1-3.85c.21-.95.27-1.93.47-2.89a39.28,39.28,0,0,0,1.22-5.77C448.38,129.71,448.08,126.64,448.07,123.58ZM310.32,55.86c-3.67.36-7.32,1-11,1.44-2.88.38-5.76.71-8.63,1.12-2.6.37-5.18.78-7.76,1.22-3.3.57-6.61,1.11-9.89,1.81-4.38.94-8.71,2.07-13.09,3-3.67.8-7.4,1.38-11.06,2.22-4.48,1-8.91,2.28-13.39,3.35-3,.72-6.07,1.3-9.11,1.94-.48.1-1,.16-1.44.28-1.93.49-3.85,1-5.78,1.49-2.35.57-4.76.93-7,1.71a14.6,14.6,0,0,1-4.67,1.27c-.18,0-.37,0-.68-.06a4.23,4.23,0,0,1,.38-1.14c.82-1.15.55-1.83-.8-2.2a5.84,5.84,0,0,1-1.47-.65c-1.61-.94-2.35-.52-3.15,1.62a17.2,17.2,0,0,0-.88,2.89c-.19,1-.85,1.18-1.63,1.37-6.78,1.67-13.55,3.44-20.35,5q-8.39,1.92-16.84,3.43c-4.72.84-9.5,1.35-14.24,2.09-2.53.39-5,1-7.55,1.43-1.43.23-2.91.16-4.36.3s-3,.45-4.49.56c-4.21.31-8.42.66-12.64.78-2.25.06-4.51-.39-6.77-.52s-4.51-.07-6.76-.21a16.1,16.1,0,0,1-3.52-.67c-2.22-.68-4.49-1-6.65-2.1s-4.48-1.8-6.29-3.48c-2.26-2.11-4.12-4.36-4.73-7.63-.51-2.72,0-5.31.06-8a4.38,4.38,0,0,1,1-2.19c1.61-2.21,3.27-4.38,4.95-6.53,1.22-1.55,2.43-3.12,3.77-4.57,1.91-2,3.88-4.06,5.94-6,1.58-1.46,3.37-2.7,5-4.06,1.82-1.48,3.56-3.05,5.42-4.45,1.43-1.08,3-1.93,4.5-2.93s3-2.27,4.65-3.25c2.38-1.45,4.87-2.73,7.29-4.12,2.13-1.23,4.17-2.63,6.34-3.77,2.54-1.33,5.18-2.45,7.76-3.68,2.17-1,4.31-2.16,6.49-3.2.9-.43,1.88-.71,2.8-1.12,3-1.36,6-2.79,9-4.12a48.41,48.41,0,0,1,4.67-1.73c1.94-.62,3.91-1.2,5.89-1.66s4-.68,6-1.15c2.21-.51,4.38-1.25,6.6-1.76,1-.23,2.13-.06,3.18-.22,1.39-.21,2.74-.59,4.12-.84s2.51-.36,3.77-.54l4.12-.6c2.09-.3,4.17-.63,6.27-.86,3-.33,5.93-.64,8.9-.87,1.89-.15,3.79-.13,5.68-.22,1.55-.08,3.09-.27,4.63-.29,1.76,0,3.54.26,5.28.06a49.77,49.77,0,0,1,9.61.13c2.82.22,5.66.07,8.48.26,2.31.15,4.6.58,6.9.86,1.4.16,2.8.2,4.19.41,3.63.54,7.26,1.14,10.88,1.71,2,.32,4.08.52,6.08.94,1.68.35,3.3,1,5,1.42.68.19,1.4.22,2.07.43,2.32.72,4.65,1.45,6.95,2.24,3.54,1.22,7.16,2.29,10.57,3.81A91.08,91.08,0,0,1,307,21.82a27.26,27.26,0,0,1,4.32,2.55c2.51,2.17,5.33,4.06,7,7s3.7,5.51,4.86,8.53a87.42,87.42,0,0,1,2.94,11.4,18,18,0,0,1,.2,3.18C320.87,55,315.59,55.33,310.32,55.86Zm78.15,107.9c.76-1.42,1.65-2.77,2.5-4.14a11,11,0,0,1,1.17-1.79,38.65,38.65,0,0,1,4.55-4.5,17.23,17.23,0,0,1,4.4-2,1.13,1.13,0,0,1,1,.39c1,2.33-.2,6.46-2.38,8.16-2,1.56-4,3-6.13,4.47a11.24,11.24,0,0,1-2.21,1,12.61,12.61,0,0,1-2.49-.42A1.27,1.27,0,0,1,388.47,163.76ZM148.33,182.61c-1-1.88-.39-3.62.42-5.21,1.64-3.2,4.77-3.69,8.24-4.2C154.5,176.92,152.59,180.72,148.33,182.61ZM177.66,164a43.85,43.85,0,0,1,4.36-4.68,4.79,4.79,0,0,1,4-1.54c1.48,2.1.6,4-.42,5.92a9.85,9.85,0,0,1-4.45,4.31c-2.18,1.07-4.46,2.34-7.52,1.94C175.09,167.78,176.25,165.79,177.66,164Zm-44.46-9a1.56,1.56,0,0,1,1.4-.31,1.92,1.92,0,0,1,.81,1.39c.1,1.92-2.6,4.52-4.72,4.6C130.32,158.13,131.5,156.4,133.2,155ZM101,159.46c6.89-6.89,13.69-13.67,20.49-20.46l.18,0L111,161.47ZM95.56,201a1,1,0,0,1-.84.47c-1.8-.58-3.56-1.29-5.36-1.88-1.29-.42-2.65-.64-3.93-1.11a38.76,38.76,0,0,1-3.76-1.75,26.74,26.74,0,0,1-3.46-1.87,14.85,14.85,0,0,1-2.06-2.06l0-.38H98.82C97.73,195.26,96.67,198.12,95.56,201Zm30,7.56-7-1.42c-1.63-.33-3.27-.61-4.89-1q-4-.87-7.93-1.82c-2.65-.64-5.29-1.32-8-2-.64-.16-1-.39-.6-1.09,1.42-2.72,2.77-5.48,4.29-8.14a2.47,2.47,0,0,1,1.84-.79,44.34,44.34,0,0,1,6.82.1,28.91,28.91,0,0,0,7.14,0,26,26,0,0,1,4.11.26c1,0,2-.09,3-.05,2.1.09,4.2.24,6.54.38Zm137-14.73c-2,1.77-3.92,3.61-6,5.23a46.09,46.09,0,0,1-5.2,3.23c-1.66.94-3.37,1.81-5.1,2.63a62.41,62.41,0,0,1-5.95,2.57c-2.5.86-5.07,1.57-7.64,2.19-3.86.93-7.72,1.9-11.63,2.55-4.65.76-9.34,1.27-14,1.73-2.94.29-5.9.34-8.86.37-4.81.05-9.63-.17-14.43.06a66.67,66.67,0,0,1-9.06-.51c-2.18-.19-4.4,0-6.59-.13-1.67-.11-3.31-.59-5-.78-1.85-.2-3.71-.24-5.56-.4q-3.33-.27-6.66-.63c-2.28-.24-4.57-.49-6.84-.81-3.91-.55-7.81-1.15-12.12-1.79.54-1.56,1-2.91,1.47-4.24.56-1.48,1.19-2.93,1.75-4.4.85-2.25,1.6-4.54,2.54-6.75a2.13,2.13,0,0,1,1.59-1c2.4-.12,4.81-.12,7.22-.09,2.82,0,5.63.2,8.45.25,3.15.07,6.3.06,9.44.11,3.82.07,7.64.21,11.46.24,1.61,0,3.23-.21,4.84-.21,3.75,0,7.51.15,11.26.11,2.47,0,4.93-.32,7.4-.37s5.19.07,7.79.05c1.45,0,2.89-.19,4.34-.24,2.66-.08,5.33-.08,8-.2,1.83-.08,3.65-.34,5.47-.45,1.15-.07,2.31.05,3.46,0,2.28-.11,4.55-.33,6.83-.42,3.25-.12,6.51-.13,9.76-.23,3.65-.1,7.31-.19,10.95-.37,2.3-.12,4.58-.43,6.87-.59,1.11-.08,2.23,0,3.26,0C265.05,191.5,263.87,192.67,262.63,193.78Zm78.21-40.29a7.8,7.8,0,0,1,5.09-2.38,3.13,3.13,0,0,1,2.38,1,11.2,11.2,0,0,1,1.85,8.39,1.28,1.28,0,0,1-1.42,1.28c-1.77,0-3.54.23-5.3.21a23.24,23.24,0,0,1-3.25-.55c.58-2.11,2-4.07-1.2-5A14.85,14.85,0,0,1,340.84,153.49ZM336,178.78a18.4,18.4,0,0,1-.21-2.85c.29-4.17,1.77-8,3.28-11.87a5.49,5.49,0,0,0,.21-.82l9.29,2.25C348,169.42,340.24,178.25,336,178.78Zm2.42,4.23a19.09,19.09,0,0,0,9.93-6.93c1.89-2.43,3.85-4.77,4.72-7.84a20.49,20.49,0,0,1,1.69-3.81c.15-.29.7-.39,1.07-.56l5.63-2.67c-.34.92-.6,1.74-.94,2.52-1,2.43-2.29,4.79-3.12,7.29a48.17,48.17,0,0,0-1.83,7.81c-.08.51,1,1.47,1.7,1.78,1.36.59,2.86.85,4.29,1.48Zm24.58-.95-.1-.33c7.9-4.42,13.64-10.94,18.32-18.55a30.55,30.55,0,0,0-.49,3.64,20.68,20.68,0,0,0,.38,4.23c.71,3.48,3.24,5.46,6.13,7.07,1.6.9,3.27,1.7,4.93,2.78Z"/><path class="cls-1" d="M412.61,240.65a28.93,28.93,0,0,0-7.66-5.84,63,63,0,0,0-14.7-5.22A89.08,89.08,0,0,0,380,227.8c-4.81-.57-9.64-.92-14.47-1.34-2-.17-4-.34-6.06-.38-3.23-.07-6.47-.05-9.71,0-4.22,0-8.43,0-12.64.1-5.38.17-10.74.47-16.11.71-3.21.14-6.43.22-9.64.38-3.6.19-7.2.44-10.8.64a7,7,0,0,1-1.25-.18c.56-.87,1-1.62,1.5-2.32,1.93-2.68,1.92-2.65-.29-5-.55-.59-1.06-.56-1.48-.08-1.79,2-3.66,4-5.23,6.19a3.74,3.74,0,0,1-3.3,2c-4.88.15-9.76.62-14.64.91-3.58.22-7.16.38-10.75.5a5,5,0,0,1-3.76-.89,2.53,2.53,0,0,0-3.1-.18c.2,2.12,1,3.32,2.91,3.69a30.72,30.72,0,0,0,6.19.61c5.09,0,10.17-.3,15.26-.44,2.12-.05,4.25,0,6.43,0-1,1.44-2.17,2.83-3.13,4.33-1.75,2.71-3.4,5.48-5.09,8.23a39.22,39.22,0,0,1-3.06,4.84,66.38,66.38,0,0,1-5.7,5.8,84.31,84.31,0,0,1-7.06,6,99.17,99.17,0,0,1-9.18,6,28.26,28.26,0,0,1-5.35,2,1.14,1.14,0,0,1-.89-.4,17.3,17.3,0,0,1,.45-4.64,39.65,39.65,0,0,1,2.6-5.06,29.56,29.56,0,0,1,8.28-10.46,7.12,7.12,0,0,1,5-1.85c-.05.88-.1,1.63-.14,2.47a1.76,1.76,0,0,0,2.22-1.13c.18-.44-.3-1.32-.72-1.79a15.09,15.09,0,0,0-2.25-1.87,4.55,4.55,0,0,0-4.9-.5,27.78,27.78,0,0,0-6.39,4.47,44,44,0,0,0-4.92,6.44c-.92,1.32-1.59,2.81-2.42,4.19a4.33,4.33,0,0,1-1.21,1.48A56.87,56.87,0,0,1,226,268.94a2.94,2.94,0,0,1-2.11-.26c-.69-.54-.11-3.38.69-3.93a85.45,85.45,0,0,0,11.95-9.93c2.05-2.06,4.23-4.11,5.12-7a3,3,0,0,0-.53-2.59,15,15,0,0,0-3.94-2.48,4,4,0,0,0-2.35,0c-3.74.83-6.24,3.56-8.64,6.19a33.85,33.85,0,0,0-6.6,11,13.24,13.24,0,0,0-.71,3.75c-.12,1.59-.52,2.76-2.31,3.12-.84.16-1.59.77-2.43,1-1.59.41-3.09,1.41-5.08.93.39-2.27.58-4.47,1.16-6.57.64-2.32,1.6-4.55,2.45-6.81.52-1.35,1-2.7,1.68-4s1.49-2.78,2.21-4.18a62.19,62.19,0,0,1,3.45-6.7c3.14-4.66,6.54-9.14,9.8-13.72.54-.74,1.3-1.61,1.27-2.4s-.83-1.59-1.45-2.25a4,4,0,0,0-1.6-.72c-.1,0-.34.16-.46.3-.84,1-1.71,1.86-2.47,2.86-1.57,2.08-3.15,4.15-4.57,6.33-2.45,3.74-4.79,7.56-7.14,11.36a69.92,69.92,0,0,1-4.16,6.81c-3.53,4.41-7.26,8.67-11,12.9-2.19,2.46-4.33,5-7.49,6.38-3,1.3-5.9,2.55-9.26,2.55-1.24-2.55-.29-5.08.33-7.41a52.68,52.68,0,0,1,3.53-8.75q2.89-6.15,6.08-12.16a49.48,49.48,0,0,1,3.78-6.09c2.49-3.43,5.13-6.73,7.79-10.2-1.17-1-2.19-1.87-3.13-2.78a1.13,1.13,0,0,0-1.86.07c-1.84,2.18-3.67,4.37-5.42,6.63-1,1.32-1.86,2.77-2.77,4.17-.76,1.18-1.54,2.35-2.26,3.54a31.85,31.85,0,0,1-2.19,3.72,37.18,37.18,0,0,1-9,8.15c-2,1.26-4,2.53-6.23,3.95.16-2.84,0-5.09-2.24-6.57a24.07,24.07,0,0,1-2-1.43c-2-1.6-4.09-1.25-6-.11-2.66,1.59-4.92,3.57-6,6.76a4.36,4.36,0,0,0,.57,4.6c-1.38.76-2.67,1.54-4,2.2-7.29,3.55-14.57,7.12-21.9,10.58-3.41,1.61-6.93,3-10.41,4.46-2.65,1.11-5.39,2-8,3.31a52.48,52.48,0,0,1-11.61,3.88,56.68,56.68,0,0,1-9.33.84c-1.83.1-3.8-1.7-4.39-3.43a9.26,9.26,0,0,1,.05-6.54,83.87,83.87,0,0,1,3.65-8.36,41.56,41.56,0,0,1,3.78-5.26c.49-.66,1.06-1.26,1.59-1.89,1.7-2.06,3.29-4.23,5.14-6.16,1.65-1.73,3.6-3.19,5.39-4.79.74-.67,1.36-1.49,2.15-2.1,1.82-1.4,3.69-2.74,5.57-4.06,2.78-2,5.48-4,8.39-5.76,3.44-2,7-3.75,10.61-5.54a53.56,53.56,0,0,1,12-4.41,29.22,29.22,0,0,1,9.85-1c3,.32,4.37,1.54,4.43,4.46,0,1,.13,1.92.21,2.88l.46.05a11.11,11.11,0,0,0,.76-1.65c.71-2.57-1.58-6.86-4.32-8.1a17.77,17.77,0,0,0-8.6-1.22,39.45,39.45,0,0,0-10.46,2.37c-1.85.64-3.68,1.32-5.49,2.08a77.58,77.58,0,0,0-7.21,3.22c-3.15,1.7-6.2,3.6-9.22,5.53-2.4,1.54-4.76,3.15-7,4.91-2,1.62-3.89,3.51-5.85,5.25s-4.07,3.4-6,5.25a73.42,73.42,0,0,0-9.81,12.08c-2.51,3.84-4.69,7.86-5.26,12.55a10.28,10.28,0,0,0,1.38,6.2c1.54,2.74,4.36,4.1,7.06,5.62,3.16,1.78,6.47,1.45,9.73,1.24a27,27,0,0,0,6.45-1.67,94,94,0,0,0,9.13-3.35c5.42-2.45,10.9-4.85,16.06-7.8,8-4.55,15.68-9.55,23.51-14.35l1.59-1c-1,1.64-2,2.88-2.7,4.23-1.24,2.33-2.41,4.7-3.53,7.09a5.75,5.75,0,0,0,3.84,8,3.1,3.1,0,0,0,1.42,0,11,11,0,0,0,5.7-3.7c2.13-2.31,4.73-4.24,6-7.29.72-1.71,1.79-3.28,2.61-5,.72-1.45,1.25-2.89,3-3.61a52.43,52.43,0,0,0,5.87-3.12c1-.58,2-1.25,3-1.88,0,.28-.12.4-.18.56q-2.06,5.59-4.07,11.21a3,3,0,0,0,0,1,4.59,4.59,0,0,1,.05,1.22,4.74,4.74,0,0,0,1.82,4.74,37.28,37.28,0,0,0,4.94,2.56,4,4,0,0,0,2.81.14,56,56,0,0,0,8.92-4.49c2.62-1.79,4.78-4.24,7.12-6.42,1.52-1.41,3-2.86,4.47-4.28-.18.75-.37,1.54-.57,2.33-.49,1.9-1.17,3.78-.95,5.8.19,1.81.69,3.39,2.55,4.19a16.49,16.49,0,0,1,2.19,1.18,4.35,4.35,0,0,0,4.2.29c2.2-.93,4.34-2,6.66-3.06,0,0,.21.2.43.38,2.9,2.3,6.09,4.18,9.87,3.19a28.22,28.22,0,0,0,7.3-3.41c2.6-1.59,4.95-3.57,7.54-5.48a11.58,11.58,0,0,0-.28,1.56c-.1,2.23-.19,4.47,2.06,5.87a24.59,24.59,0,0,0,3.14,1.88,5.6,5.6,0,0,0,2.94.57c2.48-.43,5-.92,7-2.67.58-.5,1.27-.87,1.88-1.34,2.64-2.05,5.3-4.1,7.91-6.2,1.38-1.11,2.69-2.32,4-3.49a13.17,13.17,0,0,1-.45,2.52c-.42,2.22-.44,4.52,2.36,5.68.9.37,1.77.83,2.64,1.28a5.13,5.13,0,0,0,4.9-.11,54.24,54.24,0,0,0,6-3.56c2.43-1.66,4.75-3.48,7.08-5.27.76-.59,1.42-1.31,2.13-2-.44,2.07-1.08,4-1.63,5.87a2.2,2.2,0,0,0,1,2.62,26.36,26.36,0,0,0,3.11,1.93,4.36,4.36,0,0,0,2.09.39,8.91,8.91,0,0,0,5.5-2.42c4.5-3.9,8.9-7.91,13.34-11.87l1.65-1.48a8.82,8.82,0,0,1-1,3.59c-1.27,1.87-1.32,4.06-2,6.08a4.51,4.51,0,0,0,1.59,5.37c.62.47,1.15,1.07,1.78,1.52,1.13.8,2.25,1.75,3.79,1.16a65.26,65.26,0,0,0,6.88-2.74,37.59,37.59,0,0,0,4.88-3.54,72.19,72.19,0,0,0,5.77-4.52,46.39,46.39,0,0,0,4.08-4.84c.8-1,1.58-2,2.28-3.09,1-1.51,1.95-3,2.83-4.61.62-1.11.87-2.49,1.66-3.43,1.3-1.54.94-3.44,1.55-5.11-.93-.68-.13-2-1.36-2.82-2-1.36-4.29-1.81-6.51-2.45a7.88,7.88,0,0,0-2.5.11c2.87.54,4.51,2.78,3.58,5.51a37.33,37.33,0,0,1-2.38,5c-1.1,2.14-2,4.53-3.5,6.29-1.92,2.18-3.34,4.79-5.92,6.46-3.2,2.07-6.11,4.59-9.23,6.8a40.05,40.05,0,0,1-4.23,2.3l-.33-.36a41.16,41.16,0,0,1,1.59-5.76c1.58-3.71,3.46-7.31,5.13-11,.49-1.08,1.43-2.3.2-3.47a28.12,28.12,0,0,0-2.54-2c-2.7,2.47-5.19,4.91-7.86,7.13-3.16,2.62-6.48,5.05-9.72,7.58-2.64,2.06-5,4.52-8.32,5.56-.45.14-.92.23-1.37.35l-.24-.45c1.18-2.16,2.34-4.34,3.54-6.49.75-1.33,1.59-2.62,2.35-4s1.38-2.62,2.14-3.88c1.87-3.07,2.56-3.1-1.17-5a1.39,1.39,0,0,0-1.9.33c-2.05,2.07-4.12,4.1-6.24,6.08-2.89,2.7-5.78,5.4-8.76,8-2.52,2.18-5.1,4.32-7.8,6.27a9.23,9.23,0,0,1-6,1.6,41.29,41.29,0,0,1,.74-4.43,50.76,50.76,0,0,1,2.23-6.64c1-2.19,2.27-4.21,3.4-6.32a55.48,55.48,0,0,1,2.65-5.08c2.5-3.69,5.33-7.15,7.67-10.93a4.36,4.36,0,0,1,3.94-2.23c3.35-.14,6.7-.22,10-.33,1.79-.06,3.58-.1,5.37-.2,4.24-.24,8.47-.57,12.71-.75,3-.13,5.93-.06,8.89-.12,3.44-.06,6.88-.17,10.33-.27,2.57-.08,5.15-.3,7.72-.24,3.69.08,7.39.35,11.08.56,2.7.16,5.4.28,8.09.52A80.47,80.47,0,0,1,383,232.06c5.55,1.21,11.06,2.65,16.49,4.34a28.15,28.15,0,0,1,13.81,9,11.32,11.32,0,0,1,2.45,10.21,35.65,35.65,0,0,1-3.21,9.21A68.27,68.27,0,0,1,405,275.9a87.8,87.8,0,0,1-14.26,13.39q-5.19,3.93-10.58,7.58a75.48,75.48,0,0,1-7,4.17c-2.67,1.42-5.44,2.63-8.16,4-2.35,1.15-4.65,2.42-7.05,3.47-3.09,1.36-6.24,2.58-9.38,3.8-2.5,1-5,1.83-7.56,2.75-3,1.08-5.93,2.21-8.92,3.23-1.67.56-3.4.91-5.09,1.4-2.64.77-5.24,1.66-7.9,2.34-3.85,1-7.74,1.82-11.61,2.73-4.34,1-8.67,2.11-13,3-4.86,1-9.76,1.86-14.64,2.76-2.75.51-5.49,1-8.25,1.44s-5.26.72-7.89,1.08-5.34.79-8,1.09c-3.72.41-7.46.74-11.2,1.09l-7,.63c1-2.37,1.94-4.48,2.88-6.58.48-1.08,1-2.14,1.55-3.21,1.18-2.45,2.38-4.9,3.54-7.36.94-2,1.94-4,2.74-6.07s1.46-4.48,2.26-6.7c1.35-3.75,1.9-7.75.56-11.38-2.19-5.92-6.12-10.5-12.44-12.65a45,45,0,0,0-14-2.79c-4.57-.07-9.15-.1-13.71.15a100.15,100.15,0,0,0-10.18,1.32,70.71,70.71,0,0,0-7.5,1.54c-3.63,1-7.26,2-10.8,3.33a123.11,123.11,0,0,0-12.33,5,87.2,87.2,0,0,0-10.6,6.29,45.73,45.73,0,0,0-5.86,5.12c-4.25,4.09-7.41,8.7-7.22,15a12.35,12.35,0,0,0,3.11,7.76c3.78,4.47,8.87,7.07,14.1,9.39A56.28,56.28,0,0,0,177,337.58c4.54.79,9.14,1.3,13.72,1.83,2.5.29,5,.46,7.54.52,5.06.13,10.13.16,15.19.2,2.6,0,5.21.07,7.81,0,2.19-.06,4.38-.27,6.57-.37a4.6,4.6,0,0,1,1.25.32c-.41.77-.76,1.33-1,1.94-.85,2-1.69,4.05-2.48,6.1-1.52,3.88-3.06,7.76-4.47,11.68-.85,2.37-1.51,4.8-2.16,7.23-.49,1.81-.89,3.66-1.2,5.52-.24,1.45-.3,2.93-.4,4.4a21.37,21.37,0,0,0-.11,3.57,6.7,6.7,0,0,0,3.47,5.49,25,25,0,0,0,5,1.76,6.6,6.6,0,0,0,6.82-3.28c-1.45.57-3.05,1.18-4.62,1.84a1.54,1.54,0,0,1-2.23-.95,11.92,11.92,0,0,1-.59-2,17.59,17.59,0,0,1-.8-4.1,25.06,25.06,0,0,1,.84-4.88c.49-2.31,1-4.62,1.59-6.91.42-1.63,1-3.22,1.48-4.85s.87-3.46,1.41-5.16c.31-1,.91-1.9,1.25-2.89.58-1.67,1-3.39,1.58-5.07.92-2.84,1.79-5.7,2.85-8.48.27-.72.53-1.8,1.75-1.84s2.56-.22,3.84-.31c3.78-.26,7.57-.38,11.33-.79,6.24-.69,12.46-1.54,18.68-2.37q7.48-1,15-2.16c2.91-.45,5.81-1,8.7-1.6,2.41-.48,4.8-1,7.2-1.58,4.79-1.1,9.58-2.18,14.36-3.33,2.75-.66,5.47-1.42,8.2-2.16,2.37-.64,4.75-1.27,7.1-2,3.08-.94,6.12-2,9.17-3,2.44-.81,4.91-1.55,7.3-2.48,3-1.17,6-2.51,9-3.76s6-2.35,8.95-3.73,6-3.07,8.87-4.73c3.62-2.06,7.24-4.14,10.75-6.39a84.48,84.48,0,0,0,8.33-5.95c3.1-2.58,5.91-5.51,8.93-8.19a48.45,48.45,0,0,0,8.3-9.91,43.27,43.27,0,0,0,5.89-12.1,24.35,24.35,0,0,0,.44-12.59A20.9,20.9,0,0,0,412.61,240.65ZM238,246.13c-2.39,6.32-7.51,10.33-12.41,14.52C228.13,254.49,231.7,249.16,238,246.13Zm-85.23,26.06-.42-.17c.21-.7.46-1.4.63-2.11a33.59,33.59,0,0,1,4.39-9.7c.17-.28.58-.66.81-.62,1.55.26,3.08.62,4.9,1A32.74,32.74,0,0,1,152.72,272.19Zm13.11-19.42a7.08,7.08,0,0,0-.23,1c.08,1.92-1.27,2.37-2.73,2.66-1.17.23-2.35.37-3.89.6l2.37-4.11-1.45-1.15c1.62-1.72,3.31-3.22,5.76-3.69C166.48,249.66,166.05,251.22,165.83,252.77Zm67.42,77.7q-1.23,2.56-2.59,5.06a1.57,1.57,0,0,1-1,.73c-2.53.19-5.08.31-7.62.43-2,.09-4.08.17-6.12.2-3.3.05-6.6.16-9.89.05-6.66-.23-13.33-.51-20-.93a79.2,79.2,0,0,1-8.92-1.18c-3.83-.69-7.68-1.4-11.42-2.45-2.62-.74-5-2.15-7.61-3.09a13,13,0,0,1-5.93-5,10.7,10.7,0,0,1-2.15-5.73A16.85,16.85,0,0,1,153.68,308,45.06,45.06,0,0,1,166,297.13a110.36,110.36,0,0,1,11.69-6c3.23-1.45,6.64-2.51,10-3.64a105.48,105.48,0,0,1,17.42-4A99.43,99.43,0,0,1,216,282.32c2.94-.13,5.91.41,8.85.26,4.44-.22,8.65.94,12.81,2.07a17.21,17.21,0,0,1,8.56,4.72,7.57,7.57,0,0,1,1.77,6.06,29.44,29.44,0,0,1-.35,4,30,30,0,0,1-1.66,4.62c-1,2.4-2,4.8-3.19,7.13-1.73,3.51-3.62,6.94-5.36,10.44C236,324.55,234.67,327.53,233.25,330.47Z"/><path class="cls-1" d="M207.27,109.25c1.37-2.34,2.68-4.71,4-7.07,1.66-2.91,3.35-5.81,5-8.74,1.3-2.32,2.63-4.63,3.75-7s.23-3.64-1.71-4.79a18.43,18.43,0,0,0-1.46,1.93c-.82,1.45-1.46,3-2.32,4.44-1.26,2.11-2.66,4.13-4,6.2-1,1.54-2,3.09-2.95,4.63q-1.26,2-2.53,4t-2.71,4.26c-1.19,1.87-2.43,3.71-3.57,5.61-1,1.64-1.86,3.35-2.79,5-.58,1-1.24,2.05-1.77,3.12-1.37,2.84-2.69,5.71-4,8.56-1.07,2.24-.59,3.43,1.75,4.23l.41.15c2,.7,2.34.63,3.77-1,2.38-2.74,4.63-5.6,7.1-8.25,3-3.22,6.05-6.38,9.24-9.39,2.58-2.44,5.4-4.63,8.27-7.07a5,5,0,0,1,.15,1.22,36.31,36.31,0,0,0-.74,3.68,10,10,0,0,0,.31,3c.62,2.68,2.79,3.87,4.94,5.15a3.58,3.58,0,0,0,4.33-.17c1.33-1,2.62-2,3.82-2.94.64,1.47,1,3.16,2,4.4a11.34,11.34,0,0,0,7,4.59,82,82,0,0,0,9.32,1.23,16.14,16.14,0,0,0,5.3-1.13,30.14,30.14,0,0,0,4.68-1.93c1.62-.81,3.16-1.78,4.7-2.74a29.48,29.48,0,0,0,3.81-2.61c1.27-1.1,2.34-2.43,3.5-3.65a30,30,0,0,0,6.76-11.43c.81-2.48,1.22-5-.08-7.36a25.18,25.18,0,0,1-.31,3.63c-.86,3.72-3.34,6.44-5.93,9-2.1,2.12-4.33,4.11-6.56,6.1a37.47,37.47,0,0,1-4,3.2c-1.74,1.16-3.57,2.16-5.4,3.16a21.15,21.15,0,0,1-7.87,2.94c-.81.08-1.64.08-2.45.22-3.25.56-6-1.64-7.77-4.15-1-1.36-.6-3-1.12-4.36s0-1.71.79-2.24c1.47-1.06,3.05-2,4.47-3.12a42,42,0,0,0,3.47-3.34A9.21,9.21,0,0,0,250,106c.32-.73.28-2.31-.17-2.58-2.31-1.4-4.74-2.92-7.63-1.43a9.59,9.59,0,0,0-2,1.26,22.5,22.5,0,0,0-3.41,3.42,16.8,16.8,0,0,0-3.09,8.11c0,.27-.23.61-.13.8a1.26,1.26,0,0,1-.74,1.83,51.88,51.88,0,0,1-5.15,2c-.38.12-1.25-.16-1.34-.44a10.89,10.89,0,0,1-.82-3.83c.13-2.3.71-4.58,1-6.88a2.58,2.58,0,0,0-.57-1.93c-1.3-1.22-2.77-2.26-4.19-3.36-.14-.1-.41-.22-.53-.15a28.71,28.71,0,0,0-3.93,2.27c-2.19,1.71-4.26,3.57-6.32,5.42-1.6,1.45-3.17,2.94-4.66,4.49-1.93,2-3.77,4.15-5.65,6.22l-.3-.2c.63-1.1,1.25-2.2,1.9-3.29C203.85,114.91,205.59,112.09,207.27,109.25Zm38-3.83.35.32q-2.31,2.6-4.64,5.18A9,9,0,0,1,245.27,105.42Z"/><path class="cls-1" d="M370.51,253.76a29.77,29.77,0,0,0,5.05-5.35,3.81,3.81,0,0,0,.4-3.36,6.66,6.66,0,0,0-5.16-3.39c-3.8-.49-6.65,1.69-9.26,3.9a21.49,21.49,0,0,0-4.14,4.89,60.08,60.08,0,0,0-3.63,6.8,14,14,0,0,0-.37,2.21c-.67,2.53-.57,4.92,1.09,7.07,2.32,3,5.77,3.7,9.17,4,3.11.28,6.11-1.07,8.6-2.72a44.29,44.29,0,0,0,12.31-12.17c.82-1.24,1.49-2.58,2.29-4-.29,0-.35,0-.36,0-.25.31-.5.61-.72.92a34.48,34.48,0,0,1-14.27,11.13C368.75,265,365.87,266,363,267c-3.33,1.21-4.51,0-4.8-3.34a18.8,18.8,0,0,1,.54-4.12A28.85,28.85,0,0,0,370.51,253.76Zm2.33-9a15.27,15.27,0,0,1-1.71,3.67,28.71,28.71,0,0,1-10.35,7.5C363.24,250.66,366.5,246.22,372.84,244.76Z"/><path class="cls-1" d="M315.43,234.08a1.52,1.52,0,0,0-1.24.28c-.91,1.25-1.7,2.59-2.71,4.19l7.21,1.63c.68-1.19,1.31-2.16,1.8-3.2s.46-1.75-.94-2S316.81,234.34,315.43,234.08Z"/></svg>